<?xml version="1.0" encoding="UTF-8" standalone="no"?>
<!-- Created with Inkscape (http://www.inkscape.org/) -->

<svg
   version="1.1"
   id="svg9"
   width="512"
   height="512"
   viewBox="0 0 512 512"
   sodipodi:docname="joystick.svg"
   inkscape:version="1.1.2 (b8e25be833, 2022-02-05)"
   xmlns:inkscape="http://www.inkscape.org/namespaces/inkscape"
   xmlns:sodipodi="http://sodipodi.sourceforge.net/DTD/sodipodi-0.dtd"
   xmlns="http://www.w3.org/2000/svg"
   xmlns:svg="http://www.w3.org/2000/svg">
  <defs
     id="defs13" />
  <sodipodi:namedview
     id="namedview11"
     pagecolor="#ffffff"
     bordercolor="#666666"
     borderopacity="1.0"
     inkscape:pageshadow="2"
     inkscape:pageopacity="0.0"
     inkscape:pagecheckerboard="0"
     showgrid="false"
     inkscape:zoom="2.2318058"
     inkscape:cx="271.08094"
     inkscape:cy="200.28625"
     inkscape:window-width="1017"
     inkscape:window-height="1017"
     inkscape:window-x="895"
     inkscape:window-y="-8"
     inkscape:window-maximized="0"
     inkscape:current-layer="g15" />
  <g
     inkscape:groupmode="layer"
     inkscape:label="Image"
     id="g15">
    <path
       style="fill:#d92344;fill-opacity:1"
       d="M 67.934641,385.12313 C 53.577218,380.1356 46.268768,370.29279 41.799718,349.92534 c -1.56305,-7.12349 -1.8533,-12.62953 -1.79229,-34 0.0941,-32.97488 2.81747,-54.83143 10.96801,-88.02527 12.706373,-51.74787 31.621333,-84.99655 55.356952,-97.30634 9.49966,-4.92673 15.44787,-6.05009 28.52124,-5.38645 19.33828,0.98166 35.01099,5.21893 55.91283,15.11659 12.36056,5.8531 23.673,10.10713 34.66818,13.03694 7.27232,1.9378 9.88807,3.69164 12.91774,8.66124 5.26543,8.63693 0.26157,19.9839 -10.12643,22.96314 -6.11854,1.75477 -28.24594,-4.93768 -48.79131,-14.75698 -19.32567,-9.23636 -29.52734,-12.15126 -45.5,-13.0006 l -10,-0.53175 -4.97197,3.36474 c -10.85771,7.34787 -20.195809,23.23865 -29.357419,49.95795 -12.44992,36.30947 -18.16899,70.60829 -18.15939,108.90679 0.003,13.75325 0.41281,19.20688 1.91203,25.47232 2.38847,9.9818 4.41301,12.0021 11.03853,11.01541 11.43523,-1.70297 30.359979,-10.24894 62.888979,-28.39918 37.86431,-21.12718 57.09639,-30.41605 74.53857,-36.00127 40.75264,-13.04952 66.47496,-6.872 139.11067,33.40906 28.75644,15.94725 48.04891,25.42179 57.85534,28.41277 6.9386,2.11629 15.11429,2.71465 17.38524,1.27238 0.68231,-0.43333 2.18481,-4.36394 3.33887,-8.73468 1.77825,-6.7347 2.08663,-10.6923 2.02185,-25.94681 -0.15878,-37.38915 -5.13049,-69.07897 -16.17074,-103.07275 -10.34097,-31.84065 -20.06044,-49.1144 -31.83803,-56.58352 -3.77676,-2.39516 -5.53997,-2.84373 -11.17784,-2.84373 -13.77641,0 -32.13707,5.07528 -49.00579,13.54626 -16.66341,8.36788 -41.8609,15.93055 -48.26524,14.48614 -7.16992,-1.61708 -12.64366,-8.36409 -12.64366,-15.58476 0,-6.75937 5.84281,-13.56027 13.29547,-15.47561 10.62368,-2.7303 24.32113,-7.77155 36.70453,-13.50885 7.425,-3.44005 17.775,-7.60799 23,-9.26209 17.85657,-5.65294 39.68127,-7.7267 50.63161,-4.81096 32.24748,8.5865 56.82225,51.70641 70.73233,124.10987 4.70171,24.47296 6.05699,39.183 6.08073,66 0.0247,27.83446 -1.4317,38.25496 -6.9879,49.9998 -10.13269,21.41875 -33.26049,26.12443 -65.95677,13.41985 -12.0361,-4.67679 -27.90329,-12.71496 -56,-28.36908 -35.10779,-19.56035 -57.9726,-29.83753 -73.97551,-33.2502 -10.73155,-2.28854 -24.59713,-1.28248 -36.85976,2.67448 -17.38288,5.60917 -33.02936,13.25534 -75.66473,36.97604 -18.90103,10.51581 -35.61367,18.78577 -45.59524,22.562 -16.906309,6.39601 -33.792199,8.19784 -43.904759,4.6849 z M 156.226,283.96814 c -8.58602,-2.68714 -11.79136,-8.65387 -11.79136,-21.94962 v -8.86634 l -10.35298,-0.38324 c -9.19746,-0.34046 -10.80429,-0.6819 -14.39657,-3.05916 -7.11557,-4.70886 -9.26174,-15.24029 -4.43461,-21.76099 4.26663,-5.76355 7.62894,-7.02345 18.74357,-7.02345 h 10.26364 l 0.33847,-10.93025 c 0.28467,-9.19265 0.67104,-11.37851 2.43043,-13.75 7.28064,-9.81362 19.53546,-9.81362 26.8161,0 1.75939,2.37149 2.14576,4.55735 2.43043,13.75 l 0.33847,10.93025 h 10.26364 c 8.99758,0 10.67145,0.27755 13.56958,2.25 7.68417,5.2298 9.8387,12.92348 5.8044,20.72712 -3.47576,6.72325 -7.20057,8.41261 -19.55714,8.87002 l -10.25743,0.3797 v 9.17469 c 0,7.53256 -0.40271,9.9692 -2.25,13.6137 -3.33461,6.57883 -11.26331,10.12299 -17.95864,8.02757 z m 192.68772,-0.0116 c -4.85084,-1.09979 -8.22597,-3.87691 -10.55243,-8.68273 -3.70102,-7.64529 -1.49632,-14.95353 6.06318,-20.09848 8.94217,-6.08599 22.20928,0.36007 23.70586,11.51789 1.40119,10.44663 -8.8125,19.62214 -19.21661,17.26332 z m -35.07801,-32.93663 c -6.06257,-2.75329 -8.90107,-7.30431 -8.90107,-14.27124 0,-9.54757 5.84236,-15.32333 15.5,-15.32333 8.98869,0 14.94886,5.38779 15.68148,14.17551 0.54655,6.55568 -2.5849,12.01448 -8.64749,15.07449 -5.38771,2.71937 -8.24474,2.79158 -13.63292,0.34457 z m 65.95293,0.84467 c -7.20594,-2.15886 -12.35706,-10.77892 -10.9436,-18.31334 0.77589,-4.13584 4.59683,-9.06116 8.65906,-11.16182 9.32043,-4.81978 21.49388,2.00427 22.60507,12.67168 1.14416,10.98402 -9.73023,19.97629 -20.32053,16.80348 z m -32,-32 c -7.20594,-2.15886 -12.35706,-10.77892 -10.9436,-18.31334 0.77589,-4.13584 4.59683,-9.06116 8.65906,-11.16182 9.32043,-4.81978 21.49388,2.00427 22.60507,12.67168 1.14416,10.98402 -9.73023,19.97629 -20.32053,16.80348 z"
       id="path99" />
  </g>
</svg>
